<?xml version="1.0" encoding="UTF-8"?>
<svg width="20px" height="17px" viewBox="0 0 20 17" version="1.1" xmlns="http://www.w3.org/2000/svg" xmlns:xlink="http://www.w3.org/1999/xlink">
    <!-- Generator: Sketch 47.1 (45422) - http://www.bohemiancoding.com/sketch -->
    <title>Shape</title>
    <desc>Created with Sketch.</desc>
    <defs></defs>
    <g id="Page-1" stroke="none" stroke-width="1" fill="none" fill-rule="evenodd">
        <g id="splash" transform="translate(-999.000000, -208.000000)" fill="#FFFFFF">
            <g id="Group-11" transform="translate(368.000000, 66.000000)">
                <g id="Group-7" transform="translate(507.000000, 123.000000)">
                    <path d="M143.4225,26.5083333 L136.339167,19.425 C136.084167,19.1558333 135.73,19 135.333333,19 C134.554167,19 133.916667,19.6375 133.916667,20.4166667 C133.916667,20.8133333 134.0725,21.1675 134.3275,21.4225 L138.988333,26.0833333 L125.416667,26.0833333 C124.6375,26.0833333 124,26.7208333 124,27.5 C124,28.2791667 124.6375,28.9166667 125.416667,28.9166667 L139.0025,28.9166667 L134.341667,33.5775 C134.086667,33.8325 133.930833,34.1866667 133.930833,34.5833333 C133.930833,35.3625 134.568333,36 135.3475,36 C135.744167,36 136.098333,35.8441667 136.353333,35.5891667 L143.436667,28.5058333 C143.691667,28.2508333 143.8475,27.8966667 143.8475,27.5 C143.8475,27.1033333 143.6775,26.7633333 143.4225,26.5083333 Z" id="Shape"></path>
                </g>
            </g>
        </g>
    </g>
</svg>