<svg xmlns="http://www.w3.org/2000/svg" width="43" height="44" viewBox="0 0 43 44">
    <path fill="#000" fill-rule="nonzero" d="M41.357 27.189c-.513-1.576-1.69-1.714-2.613-1.004l-4.954 4.287c-.42.375-.453 1.093-.08 1.638 0 0 .857 1.24.912 1.298.495.767 1.22 2.401-.07 3.917-.655.674-2.506 2.47-4.669 2.47-3.42 0-4.682-3.064-5.14-5.975l-1.108-15.835h11.001c.773 0 1.395-.619 1.395-1.384v-1.383c0-.766-.622-1.383-1.395-1.383H23.33l-.069-1.698c2.545-.793 4.405-3.125 4.405-5.911 0-3.438-2.81-6.226-6.274-6.226-3.465 0-6.275 2.788-6.275 6.226 0 2.867 1.966 5.26 4.628 5.979l-.071 1.63H8.143c-.772 0-1.395.617-1.395 1.383v1.383c0 .765.623 1.384 1.394 1.384h11.223l-1.11 15.835c-.453 2.91-1.716 5.975-5.14 5.975-2.163 0-4.015-1.796-4.666-2.47-1.291-1.516-.566-3.151-.073-3.917.056-.059.914-1.298.914-1.298.376-.545.34-1.26-.083-1.638l-4.944-4.287c-.923-.713-2.102-.572-2.614 1.004L.02 32.95c-.256.95 1.994.885 2.212 1.984.276.73 1.754 6.137 7.249 8.29 0 0 5.288 2.674 12.034-1.914 6.697 4.585 12.019 1.915 12.019 1.915 5.493-2.157 6.957-7.56 7.233-8.291.218-1.099 2.468-1.035 2.213-1.984l-1.623-5.762zM17.91 6.22c0-1.908 1.563-3.459 3.485-3.459 1.924 0 3.486 1.551 3.486 3.459 0 1.908-1.562 3.459-3.486 3.459-1.922 0-3.485-1.551-3.485-3.459z"/>
</svg>
