<?xml version="1.0" encoding="UTF-8"?>
<svg width="115px" height="27px" viewBox="0 0 115 27" version="1.1" xmlns="http://www.w3.org/2000/svg" xmlns:xlink="http://www.w3.org/1999/xlink">
    <!-- Generator: Sketch 47.1 (45422) - http://www.bohemiancoding.com/sketch -->
    <title>arrow</title>
    <desc>Created with Sketch.</desc>
    <defs></defs>
    <g id="Page-1" stroke="none" stroke-width="1" fill="none" fill-rule="evenodd" opacity="0.471127717">
        <g id="landing" transform="translate(-527.000000, -184.000000)" stroke="#23432D" fill="#23432D">
            <g id="Group-14-Copy" transform="translate(319.000000, 136.000000)">
                <path d="M260.954544,71.9530509 C260.584169,72.6357041 260.436025,72.9089023 260.255576,73.2421924 C260.040712,73.637716 259.8598,73.951351 259.45232,74.644058 C259.250118,74.9878036 259.157535,75.1459957 259.050554,75.3313759 C258.582744,76.1391587 258.189004,76.7845301 257.307703,78.2044471 C256.954871,78.772932 253.088365,83.2194003 252.905868,83.516504 C252.198504,84.6686758 255.859582,79.3992195 248.0654,89.8643067 C241.117889,99.1923968 239.510023,101.417498 243.2418,96.5396089 C240.191847,100.083821 238.201667,102.507721 237.271259,103.811311 C236.909755,104.317576 236.586972,104.755089 235.96027,105.59437 C235.459604,106.264811 235.258151,106.535853 235.022661,106.856947 C233.878342,108.422418 233.237394,109.310683 232.553807,110.289408 C232.281405,110.679894 232.434554,111.154726 232.884136,111.360722 C233.303075,111.551641 233.899194,111.433838 234.128381,111.106298 C234.993293,109.871939 235.920088,108.590979 236.974078,107.167519 C237.14671,106.933751 237.303778,106.72215 237.585628,106.343221 C238.664883,104.892277 239.122141,104.266266 239.65932,103.489594 C240.550404,102.200206 240.996536,101.577189 242.039367,100.018329 C242.391303,99.4916142 241.122027,101.69384 247.537159,93.1713473 C252.696625,86.3169677 251.719674,88.3208657 252.045917,87.8050086 C252.763968,86.6697059 251.991432,88.2262687 255.874285,82.7702485 C259.258444,78.0148108 258.984289,78.8459344 259.684083,77.6989252 C261.458331,74.7909126 262.979928,72.0452541 264.286267,69.359919 C264.828775,68.2449406 263.765798,69.9949338 267.670715,63.0760285 C270.504403,58.0538234 271.904828,55.4872563 272.409048,54.3158363 C273.178482,52.5275011 273.79143,51.0720945 274.362577,49.6669166 C274.742511,48.734156 275.037431,47.9678048 275.668382,46.2951476 C275.749216,46.0808503 275.749216,46.0808503 275.830161,45.866412 C275.895098,45.6945008 275.895098,45.6945008 275.960345,45.5220757 C276.121443,45.0977806 276.245072,44.7407304 276.499886,43.979535 C276.649779,43.5317528 276.71359,43.3428895 276.794736,43.1091852 C276.933275,42.7068028 277.039205,42.3795987 277.270746,41.6489051 C277.345353,41.4135362 277.345353,41.4135362 277.399166,41.2444785 C278.028346,39.2615909 278.346217,38.2150169 278.66506,37.0253959 C278.745853,36.7239468 278.745853,36.7239468 278.826687,36.4225737 C279.924122,32.3309156 280.390651,30.4760026 280.85672,28.1735676 C281.346384,25.75379 281.770649,23.344994 282.344835,19.8298589 C282.368157,19.6845701 282.383812,19.5638072 282.415788,19.2955165 L282.955101,14.7718257 L284.057479,19.2172312 C284.185133,19.7320021 284.314754,20.2290109 284.448193,20.7139113 C284.77667,21.9058322 285.208356,23.1367837 285.817657,24.6767037 C286.480331,26.3482711 286.996974,27.550207 287.572776,28.7124791 C288.196718,29.9741968 288.828071,31.1484978 289.488755,32.2665146 C289.588908,32.4363671 289.588908,32.4363671 289.688873,32.6061017 C290.631925,34.2069018 291.077161,34.9386129 291.607936,35.7428817 C291.757119,35.9686577 292.185602,36.0989291 292.53012,36.02484 C292.85695,35.9542413 293.127242,35.6964087 293.165073,35.4196974 C292.892455,34.6455305 292.572369,34.0100578 292.059743,33.1522938 C291.981431,33.0212549 291.710381,32.5738578 291.666633,32.5010432 C291.257049,31.8156838 290.869418,31.1567764 290.488692,30.4991732 C290.228276,30.0394541 290.054067,29.7176756 289.876153,29.3921955 C289.429075,28.5615922 289.045557,27.7454933 288.483772,26.4684453 C288.41785,26.31859 288.358357,26.1828522 288.233701,25.8981817 C287.645143,24.5519244 287.182315,23.3856255 286.794979,22.261921 C286.233433,20.6225091 285.92634,19.6421355 285.664936,18.5735741 C285.631069,18.435765 285.603118,18.3250262 285.539595,18.0755501 C285.370183,17.4102187 285.298401,17.110295 285.224589,16.730117 C285.181379,16.5045127 285.148042,16.3321123 285.066774,15.9131053 C284.963638,15.3813458 284.915708,15.1327522 284.854888,14.808981 C284.826203,14.6061491 284.826203,14.6061491 284.797477,14.4032557 C284.554854,12.6881355 284.443192,11.8718504 284.333015,10.9942233 C284.293952,10.7029764 284.224312,10.5598377 284.067785,10.4378434 C283.912924,10.3165339 283.700934,10.2480721 283.488398,10.2480721 C283.461259,10.2480721 283.305556,10.2678381 283.021291,10.3073701 L282.742473,10.1752714 C282.40216,10.0760824 282.206765,10.096098 282.042643,10.1715987 C282.010312,10.186168 281.902571,10.2597991 281.719421,10.3924921 C281.449206,10.5288652 281.267961,10.7802772 281.251355,11.0688296 C280.916062,12.0743549 280.661442,12.6422625 280.153061,13.6579555 C280.049171,13.8465581 280.049171,13.8465581 279.945235,14.0356477 C279.059823,15.6457928 278.631518,16.3879232 278.099132,17.2068575 C277.146864,18.6711345 276.300418,19.8705889 275.407327,20.9924736 C272.954284,24.0747562 271.319762,26.0628562 269.553801,28.0672019 C268.962818,28.7394262 268.341974,29.4029452 267.461422,30.3148087 C267.016809,30.7725173 266.684943,31.1124469 266.356344,31.445929 C266.205978,31.5985838 266.052038,31.7558401 265.847369,31.9656295 C265.478906,32.3429081 265.259797,32.6668661 265.140764,33.0303326 C265.035855,33.354337 265.203969,33.6820056 265.539505,33.8355891 C265.726843,33.9214152 265.957546,33.9449112 266.166991,33.8998164 C266.370583,33.8561301 266.580998,33.7344974 266.646377,33.6285596 C268.090034,32.0573876 269.241571,30.8654401 270.312166,29.7068182 C271.21191,28.7351289 272.094843,27.7074882 273.204866,26.3579379 C274.506505,24.777992 275.208233,23.9079022 275.956151,22.927664 C276.656384,22.011719 277.001875,21.5549974 277.397173,21.016798 C277.715587,20.5836868 277.969784,20.2176332 278.501045,19.4369146 C278.761759,19.0530762 278.871866,18.8744973 279.019628,18.6222658 L281.04813,15.1595791 L280.603376,18.9243082 C280.542597,19.4387881 280.494986,19.794339 280.43569,20.1510333 C280.196116,21.6295222 280.089149,22.2866306 279.952238,23.1158773 C279.241932,27.001696 278.796363,29.1948628 278.187632,31.5881149 C277.239524,35.3173554 276.495457,38.0144133 275.652796,40.6670275 C274.700206,43.6681393 273.69428,46.4815696 272.599773,49.1733782 C271.251183,52.4837701 270.131812,55.0901069 268.964388,57.5870128 C268.488445,58.6037402 267.18096,60.9241322 264.482772,65.6024559 C261.310091,71.1029428 261.922308,70.1241806 261.471249,70.9838161 C261.330402,71.2601754 261.216771,71.4697083 260.954544,71.9530509 Z" id="arrow" transform="translate(262.791764, 60.780112) rotate(237.000000) translate(-262.791764, -60.780112) "></path>
            </g>
        </g>
    </g>
</svg>